<svg width="339" height="206" viewBox="0 0 339 206" fill="none" xmlns="http://www.w3.org/2000/svg">
<path d="M338.032 115.617C338.032 71.4093 293.929 35.3877 239.686 35.3877C221.147 35.3877 203.453 39.5075 187.977 47.3245C172.555 19.4897 138.276 0 98.4518 0C44.1554 0 0 35.9687 0 80.177C0 101.198 10.1938 121.48 28.2045 136.375L27.0954 162.097C26.9897 164.843 28.363 167.379 30.6341 168.858C31.849 169.597 33.2222 170.02 34.6483 170.02C35.9159 170.02 37.1307 169.703 38.2399 169.122L63.6451 155.336C74.6839 158.769 86.3038 160.512 98.3462 160.512C117.255 160.512 134.896 156.076 149.949 148.47C165.583 177.097 200.442 195.9 239.633 195.9C251.623 195.9 263.242 194.157 274.281 190.777L299.686 204.562C300.796 205.196 302.063 205.46 303.278 205.46C304.651 205.46 306.077 205.09 307.292 204.298C309.616 202.872 310.989 200.284 310.831 197.59L309.775 171.868C327.785 156.921 338.032 136.639 338.032 115.617ZM98.399 145.301C86.8848 145.301 75.7931 143.505 65.4409 139.914C63.4338 139.227 61.2155 139.385 59.3669 140.442L42.835 149.421L43.5216 133.206C43.6273 130.723 42.5181 128.347 40.511 126.868C24.1904 114.508 15.1586 97.9236 15.1586 80.2298C15.1586 44.3667 52.5006 15.1586 98.399 15.1586C135.371 15.1586 166.798 34.1729 177.572 60.3704C177.625 60.476 177.678 60.5289 177.678 60.6345C180.213 66.8141 181.587 73.4163 181.587 80.2826C181.534 116.093 144.245 145.301 98.399 145.301ZM297.521 162.203C295.567 163.681 294.405 166.058 294.51 168.541L295.144 184.756L278.612 175.777C276.764 174.773 274.545 174.562 272.538 175.248C262.133 178.84 251.094 180.636 239.58 180.636C205.619 180.636 175.671 164.738 162.836 140.547C183.488 125.811 196.64 104.262 196.64 80.177C196.64 73.6276 195.583 67.3423 193.787 61.2683C207.361 54.1907 223.101 50.4407 239.633 50.4407C285.531 50.4407 322.873 79.6488 322.873 115.565C322.873 133.311 313.894 149.843 297.521 162.203Z" fill="#FDC00B"/>
<path d="M100.776 101.251C100.248 100.723 99.561 100.3 98.6631 100.089C97.818 99.8247 96.7617 99.7191 95.4412 99.7191C94.068 99.7191 92.9588 99.8247 92.0609 100.089C91.2158 100.3 90.5292 100.723 90.001 101.251C89.4729 101.832 89.1031 102.571 88.8919 103.469C88.7334 104.367 88.6278 105.476 88.6278 106.849C88.6278 108.17 88.7334 109.332 88.8919 110.23C89.1031 111.075 89.4729 111.814 90.001 112.342C90.5292 112.871 91.2158 113.293 92.0609 113.504C92.9588 113.769 94.0152 113.874 95.4412 113.874C96.7088 113.874 97.818 113.769 98.6631 113.504C99.561 113.293 100.248 112.871 100.776 112.342C101.304 111.814 101.674 111.075 101.885 110.23C102.096 109.332 102.202 108.223 102.202 106.849C102.202 105.529 102.096 104.367 101.885 103.469C101.712 102.647 101.33 101.883 100.776 101.251ZM111.498 52.289C109.808 50.546 107.589 49.1199 104.896 48.0636C102.202 47.06 98.98 46.5319 95.1771 46.5319C93.5398 46.5319 91.9025 46.6375 90.3708 46.9016C88.839 47.1657 87.413 47.4826 86.1982 47.8523C84.9305 48.222 83.8214 48.5917 82.9235 49.0143C82.0256 49.4368 81.4446 49.8065 81.1277 50.1234C80.8108 50.4403 80.5995 50.8629 80.4939 51.3911C80.3882 51.9192 80.3882 52.7115 80.3882 53.8735C80.3882 54.9298 80.3882 55.8277 80.4939 56.5672C80.5467 57.2538 80.6523 57.8348 80.8108 58.2045C80.9164 58.5742 81.0749 58.8383 81.2861 58.9968C81.4446 59.1552 81.6559 59.2081 81.8671 59.2081C82.184 59.2081 82.6594 59.0496 83.2404 58.7327C84.9546 57.7957 86.7833 57.0855 88.6806 56.62C89.9482 56.3031 91.4271 56.1446 93.0116 56.1446C94.8074 56.1446 96.3919 56.4087 97.7124 56.8841C99.0328 57.3594 100.195 58.0989 101.093 58.9968C101.938 59.9475 102.572 61.0039 103.047 62.3243C103.882 64.9866 103.9 67.8381 103.1 70.511C102.753 71.7052 102.141 72.8055 101.308 73.7294C100.476 74.6533 99.4451 75.3767 98.2934 75.8456C97.0786 76.3737 95.5997 76.6378 93.9095 76.6378H93.2229C92.5363 76.6378 91.9025 76.7435 91.4271 76.8491C90.8989 77.0076 90.4764 77.2716 90.1595 77.6414C89.7971 78.0809 89.5599 78.6101 89.4729 79.1731C89.3144 79.8069 89.3144 80.652 89.3144 81.7083L89.7369 93.0641C89.7898 93.381 89.8954 93.6979 90.1067 93.9092C90.2651 94.1204 90.582 94.2789 91.0046 94.4373C91.4271 94.543 91.9553 94.6486 92.6947 94.7014C93.3813 94.7542 94.2792 94.7542 95.3884 94.7542C97.0258 94.7542 98.3462 94.5958 99.1913 94.3317C100.089 94.0676 100.512 93.5923 100.565 93.0641L100.934 83.6626C103.311 83.3985 105.371 82.8175 107.272 81.8668C109.174 80.9689 110.811 79.7541 112.184 78.1695C113.505 76.6378 114.614 74.7892 115.353 72.6765C116.093 70.6166 116.463 68.187 116.463 65.5462C116.463 62.9581 116.093 60.5813 115.301 58.3102C114.456 56.0918 113.188 54.0319 111.498 52.289ZM242.01 108.011C237.784 108.011 234.404 111.392 234.404 115.564C234.404 119.737 237.837 123.117 242.01 123.117C244.013 123.117 245.934 122.321 247.35 120.905C248.767 119.489 249.563 117.567 249.563 115.564C249.563 113.561 248.767 111.64 247.35 110.224C245.934 108.807 244.013 108.011 242.01 108.011ZM209.21 108.011C204.985 108.011 201.604 111.392 201.604 115.564C201.604 119.737 205.038 123.117 209.21 123.117C211.213 123.117 213.134 122.321 214.551 120.905C215.967 119.489 216.763 117.567 216.763 115.564C216.763 113.561 215.967 111.64 214.551 110.224C213.134 108.807 211.213 108.011 209.21 108.011ZM276.975 108.011C272.75 108.011 269.369 111.392 269.369 115.564C269.369 119.737 272.802 123.117 276.975 123.117C281.148 123.117 284.528 119.737 284.528 115.564C284.528 111.392 281.2 108.011 276.975 108.011Z" fill="#FDC00B"/>
</svg>
